<svg width="24" height="24" viewBox="0 0 24 24" fill="none" xmlns="http://www.w3.org/2000/svg">
<path d="M23.4 20.515L18.78 15.895C18.6764 15.7918 18.5535 15.7101 18.4183 15.6545C18.283 15.5989 18.1382 15.5705 17.992 15.571H17.237C18.746 13.6373 19.4606 11.2009 19.2352 8.75845C19.0097 6.31602 17.8611 4.05155 16.0236 2.42678C14.1861 0.802015 11.798 -0.0607003 9.34638 0.0145489C6.89472 0.0897981 4.56407 1.09734 2.82967 2.83175C1.09527 4.56615 0.0877229 6.89679 0.0124737 9.34846C-0.0627755 11.8001 0.799939 14.1882 2.42471 16.0257C4.04948 17.8632 6.31394 19.0118 8.75638 19.2372C11.1988 19.4627 13.6353 18.7481 15.569 17.239V17.994C15.5685 18.1402 15.5968 18.2851 15.6524 18.4203C15.708 18.5556 15.7898 18.6785 15.893 18.782L20.513 23.402C20.6159 23.5055 20.7383 23.5877 20.8731 23.6437C21.0079 23.6997 21.1525 23.7286 21.2985 23.7286C21.4444 23.7286 21.589 23.6997 21.7238 23.6437C21.8586 23.5877 21.981 23.5055 22.084 23.402L23.4 22.09C23.608 21.8808 23.7248 21.5976 23.7248 21.3025C23.7248 21.0074 23.608 20.7243 23.4 20.515ZM9.63896 15.57C8.46564 15.5702 7.31861 15.2225 6.34294 14.5707C5.36728 13.919 4.6068 12.9925 4.1577 11.9086C3.7086 10.8246 3.59104 9.63179 3.81989 8.48101C4.04875 7.33022 4.61374 6.27314 5.4434 5.44348C6.27307 4.61381 7.33014 4.04883 8.48093 3.81997C9.63172 3.59111 10.8245 3.70867 11.9085 4.15777C12.9925 4.60688 13.9189 5.36735 14.5707 6.34302C15.2224 7.31868 15.5702 8.46571 15.57 9.63904C15.5704 10.418 15.4172 11.1894 15.1193 11.9092C14.8214 12.629 14.3845 13.2829 13.8337 13.8338C13.2829 14.3846 12.6289 14.8214 11.9091 15.1194C11.1894 15.4173 10.4179 15.5704 9.63896 15.57Z" fill="#FAFAFA"/>
</svg>
