<svg width="28" height="24" viewBox="0 0 28 24" fill="none" xmlns="http://www.w3.org/2000/svg">
<path d="M25.394 13.963L27.585 4.324C27.6221 4.16117 27.6221 3.99208 27.5849 3.82928C27.5477 3.66648 27.4743 3.51414 27.3701 3.38359C27.266 3.25303 27.1338 3.14761 26.9833 3.07515C26.8329 3.00268 26.668 2.96503 26.501 2.965H8.29902L7.87402 0.889C7.82262 0.6379 7.68606 0.412264 7.48744 0.250269C7.28881 0.088273 7.04033 -0.000135736 6.78402 1.56427e-07H2.03302C1.7381 1.56427e-07 1.45526 0.117157 1.24672 0.325697C1.03818 0.534238 0.921021 0.817079 0.921021 1.112V1.853C0.92089 1.99911 0.949555 2.14382 1.00538 2.27885C1.0612 2.41388 1.14309 2.53658 1.24636 2.63995C1.34964 2.74331 1.47227 2.82531 1.60725 2.88126C1.74223 2.9372 1.88691 2.966 2.03302 2.966H5.27202L8.52702 18.881C8.05364 19.1511 7.67711 19.5631 7.45063 20.0589C7.22416 20.5546 7.1592 21.109 7.26493 21.6436C7.37066 22.1783 7.64174 22.6662 8.03986 23.0385C8.43797 23.4107 8.94299 23.6484 9.48355 23.718C10.0241 23.7876 10.5729 23.6855 11.0523 23.4263C11.5317 23.167 11.9175 22.7637 12.1552 22.2732C12.3929 21.7828 12.4705 21.23 12.377 20.6931C12.2834 20.1562 12.0236 19.6622 11.634 19.281H21.349C20.9555 19.6668 20.695 20.1679 20.6054 20.7117C20.5158 21.2555 20.6018 21.8137 20.8508 22.3054C21.0997 22.797 21.4989 23.1966 21.9902 23.4462C22.4816 23.6958 23.0397 23.7823 23.5836 23.6934C24.1275 23.6044 24.6289 23.3446 25.0152 22.9514C25.4015 22.5583 25.6525 22.0524 25.7319 21.507C25.8112 20.9617 25.7149 20.4052 25.4567 19.9183C25.1985 19.4314 24.792 19.0393 24.296 18.799L24.552 17.674C24.5891 17.5112 24.5891 17.3421 24.5519 17.1793C24.5147 17.0165 24.4413 16.8641 24.3371 16.7336C24.233 16.603 24.1008 16.4976 23.9503 16.4251C23.7999 16.3527 23.635 16.315 23.468 16.315H11.029L10.729 14.832H24.31C24.5625 14.8317 24.8074 14.7456 25.0044 14.5876C25.2014 14.4297 25.3388 14.2094 25.394 13.963Z" fill="#FAFAFA"/>
</svg>
