<svg width="22" height="24" viewBox="0 0 22 24" fill="none" xmlns="http://www.w3.org/2000/svg">
<path d="M10.793 11.863C11.9663 11.8632 13.1133 11.5155 14.089 10.8637C15.0646 10.212 15.8251 9.28554 16.2742 8.20157C16.7233 7.11759 16.8409 5.92478 16.612 4.774C16.3832 3.62321 15.8182 2.56613 14.9885 1.73647C14.1589 0.906803 13.1018 0.341815 11.951 0.112959C10.8002 -0.115897 9.6074 0.00166106 8.52342 0.450764C7.43945 0.899867 6.51301 1.66034 5.86127 2.63601C5.20953 3.61167 4.86177 4.7587 4.86196 5.93203C4.86196 7.50503 5.48684 9.0136 6.59911 10.1259C7.14986 10.6766 7.80369 11.1135 8.52327 11.4116C9.24285 11.7096 10.0141 11.863 10.793 11.863ZM14.945 13.346H14.171C13.1118 13.8344 11.9593 14.0873 10.793 14.0873C9.62661 14.0873 8.47413 13.8344 7.41496 13.346H6.64096C4.98936 13.3466 3.40555 14.0029 2.23769 15.1708C1.06983 16.3386 0.413494 17.9224 0.412964 19.574L0.412964 21.5C0.413229 22.0898 0.647628 22.6553 1.06465 23.0723C1.48167 23.4894 2.0472 23.7238 2.63696 23.724H18.949C19.5387 23.7238 20.1043 23.4894 20.5213 23.0723C20.9383 22.6553 21.1727 22.0898 21.173 21.5V19.574C21.1724 17.9224 20.5161 16.3386 19.3482 15.1708C18.1804 14.0029 16.5966 13.3466 14.945 13.346Z" fill="#FAFAFA"/>
</svg>
